GIL12_xslow1_ik
nRows=3
nColumns=375

# SIMM Motion File Header:
name GIL12_xslow1_ik
datacolumns 375
datarows 3
otherdata 1
range 1.43333000 1.45000000
endheader
time	pelvis_tx	pelvis_ty	pelvis_tz	pelvis_tilt	pelvis_list	pelvis_rotation	hip_flexion_r	hip_adduction_r	hip_rotation_r	knee_angle_r	ankle_angle_r	hip_flexion_l	hip_adduction_l	hip_rotation_l	knee_angle_l	ankle_angle_l	lumbar_extension	lumbar_bending	lumbar_rotation	subtalar_angle_r	mtp_angle_r	subtalar_angle_l	mtp_angle_l	asis_r_px	asis_r_py	asis_r_pz	asis_l_px	asis_l_py	asis_l_pz	midasis_px	midasis_py	midasis_pz	psis_r_px	psis_r_py	psis_r_pz	psis_l_px	psis_l_py	psis_l_pz	hip_r_px	hip_r_py	hip_r_pz	hip_l_px	hip_l_py	hip_l_pz	midhip_px	midhip_py	midhip_pz	epicondLat_r_px	epicondLat_r_py	epicondLat_r_pz	epicondMed_r_px	epicondMed_r_py	epicondMed_r_pz	thighwand_r_px	thighwand_r_py	thighwand_r_pz	upperleg1_r_px	upperleg1_r_py	upperleg1_r_pz	upperleg2_r_px	upperleg2_r_py	upperleg2_r_pz	malleolusLat_r_px	malleolusLat_r_py	malleolusLat_r_pz	malleolusMedv_r_px	malleolusMedv_r_py	malleolusMedv_r_pz	shankwand_r_px	shankwand_r_py	shankwand_r_pz	lowerleg1_r_px	lowerleg1_r_py	lowerleg1_r_pz	knee_r_px	knee_r_py	knee_r_pz	ankle_r_px	ankle_r_py	ankle_r_pz	toe_r_px	toe_r_py	toe_r_pz	epicondLat_l_px	epicondLat_l_py	epicondLat_l_pz	epicondMed_l_px	epicondMed_l_py	epicondMed_l_pz	thighwand_l_px	thighwand_l_py	thighwand_l_pz	upperleg1_l_px	upperleg1_l_py	upperleg1_l_pz	upperleg2_l_px	upperleg2_l_py	upperleg2_l_pz	malleolusLat_l_px	malleolusLat_l_py	malleolusLat_l_pz	malleolusMedv_l_px	malleolusMedv_l_py	malleolusMedv_l_pz	shankwand_l_px	shankwand_l_py	shankwand_l_pz	lowerleg1_l_px	lowerleg1_l_py	lowerleg1_l_pz	knee_l_px	knee_l_py	knee_l_pz	ankle_l_px	ankle_l_py	ankle_l_pz	toe_l_px	toe_l_py	toe_l_pz	subclavicle_r_px	subclavicle_r_py	subclavicle_r_pz	subclavicle_l_px	subclavicle_l_py	subclavicle_l_pz	neck_px	neck_py	neck_pz	sternalnotch_px	sternalnotch_py	sternalnotch_pz	xyphoidprocess_px	xyphoidprocess_py	xyphoidprocess_pz	midhip_tx	midhip_ty	midhip_tz	hip_r_tx	hip_r_ty	hip_r_tz	hip_l_tx	hip_l_ty	hip_l_tz	knee_r_tx	knee_r_ty	knee_r_tz	knee_l_tx	knee_l_ty	knee_l_tz	ankle_r_tx	ankle_r_ty	ankle_r_tz	ankle_l_tx	ankle_l_ty	ankle_l_tz	midasis_tx	midasis_ty	midasis_tz	asis_r_tx	asis_r_ty	asis_r_tz	asis_l_tx	asis_l_ty	asis_l_tz	psis_r_tx	psis_r_ty	psis_r_tz	psis_l_tx	psis_l_ty	psis_l_tz	epicondLat_r_tx	epicondLat_r_ty	epicondLat_r_tz	epicondLat_l_tx	epicondLat_l_ty	epicondLat_l_tz	epicondMed_r_tx	epicondMed_r_ty	epicondMed_r_tz	epicondMed_l_tx	epicondMed_l_ty	epicondMed_l_tz	malleolusLat_r_tx	malleolusLat_r_ty	malleolusLat_r_tz	malleolusLat_l_tx	malleolusLat_l_ty	malleolusLat_l_tz	malleolusMedv_r_tx	malleolusMedv_r_ty	malleolusMedv_r_tz	malleolusMedv_l_tx	malleolusMedv_l_ty	malleolusMedv_l_tz	neck_tx	neck_ty	neck_tz	subclavicle_r_tx	subclavicle_r_ty	subclavicle_r_tz	subclavicle_l_tx	subclavicle_l_ty	subclavicle_l_tz	sternalnotch_tx	sternalnotch_ty	sternalnotch_tz	xyphoidprocess_tx	xyphoidprocess_ty	xyphoidprocess_tz	thighwand_r_tx	thighwand_r_ty	thighwand_r_tz	thighwand_l_tx	thighwand_l_ty	thighwand_l_tz	upperleg1_r_tx	upperleg1_r_ty	upperleg1_r_tz	upperleg1_l_tx	upperleg1_l_ty	upperleg1_l_tz	upperleg2_r_tx	upperleg2_r_ty	upperleg2_r_tz	upperleg2_l_tx	upperleg2_l_ty	upperleg2_l_tz	shankwand_r_tx	shankwand_r_ty	shankwand_r_tz	shankwand_l_tx	shankwand_l_ty	shankwand_l_tz	lowerleg1_r_tx	lowerleg1_r_ty	lowerleg1_r_tz	lowerleg1_l_tx	lowerleg1_l_ty	lowerleg1_l_tz	toe_r_tx	toe_r_ty	toe_r_tz	toe_l_tx	toe_l_ty	toe_l_tz	ground_force_vx	ground_force_vy	ground_force_vz	ground_force_px	ground_force_py	ground_force_pz	ground_force_vx	ground_force_vy	ground_force_vz	ground_force_px	ground_force_py	ground_force_pz	ground_torque_x	ground_torque_y	ground_torque_z	ground_torque_x	ground_torque_y	ground_torque_z	ground_marker_px	ground_marker_py	ground_marker_pz	ground_marker_px	ground_marker_py	ground_marker_pz	ground_marker_px	ground_marker_py	ground_marker_pz	ground_marker_px	ground_marker_py	ground_marker_pz	ground_marker_px	ground_marker_py	ground_marker_pz	ground_marker_px	ground_marker_py	ground_marker_pz	ground_marker_px	ground_marker_py	ground_marker_pz	ground_marker_px	ground_marker_py	ground_marker_pz	ground_marker_px	ground_marker_py	ground_marker_pz	ground_marker_px	ground_marker_py	ground_marker_pz	ground_marker_px	ground_marker_py	ground_marker_pz	ground_marker_px	ground_marker_py	ground_marker_pz	ground_marker_px	ground_marker_py	ground_marker_pz	ground_marker_px	ground_marker_py	ground_marker_pz	ground_marker_px	ground_marker_py	ground_marker_pz	ground_marker_px	ground_marker_py	ground_marker_pz	ground_marker_px	ground_marker_py	ground_marker_pz	ground_marker_px	ground_marker_py	ground_marker_pz	ground_marker_px	ground_marker_py	ground_marker_pz	ground_marker_px	ground_marker_py	ground_marker_pz	ground_marker_px	ground_marker_py	ground_marker_pz	ground_marker_px	ground_marker_py	ground_marker_pz	ground_marker_px	ground_marker_py	ground_marker_pz	ground_marker_px	ground_marker_py	ground_marker_pz	ground_marker_px	ground_marker_py	ground_marker_pz	ground_marker_px	ground_marker_py	ground_marker_pz	ground_marker_px	ground_marker_py	ground_marker_pz	ground_marker_px	ground_marker_py	ground_marker_pz	ground_marker_px	ground_marker_py	ground_marker_pz	ground_marker_px	ground_marker_py	ground_marker_pz	ground_marker_px	ground_marker_py	ground_marker_pz	ground_marker_px	ground_marker_py	ground_marker_pz	ground_marker_px	ground_marker_py	ground_marker_pz	ground_marker_px	ground_marker_py	ground_marker_pz	ground_marker_px	ground_marker_py	ground_marker_pz	ground_marker_px	ground_marker_py	ground_marker_pz	ground_marker_px	ground_marker_py	ground_marker_pz
      1.43333000	      2.06376151	      0.69302039	     -0.16921102	      5.26935757	      4.77044097	      2.79738124	     -9.29071217	     -4.88843766	     -7.66906963	     -4.68984647	      8.25689093	      2.80300680	      1.62610535	     -6.39080944	    -26.49218183	      4.00831388	    -20.32943434	      0.93208346	     -1.45980485	      0.00000000	      0.00000000	      0.00000000	      0.00000000	      2.17742126	      0.67870620	     -0.11296938	      2.17199171	      0.69252962	     -0.28677830	      2.07325995	      0.69393535	     -0.16967566	      2.04915502	      0.73911567	     -0.14797378	      2.04602128	      0.74508971	     -0.23301052	      2.02312639	      0.63918113	     -0.11389977	      2.01671871	      0.64809657	     -0.22733191	      2.01992255	      0.64363885	     -0.17061584	      2.05465186	      0.32353340	     -0.06550299	      2.06099886	      0.31756591	     -0.15871480	      2.19439772	      0.38831045	     -0.12400477	      2.12500895	      0.45464394	     -0.08732947	      2.10071951	      0.37025243	     -0.08500659	      1.96369301	      0.04356279	     -0.05701111	      1.98115429	      0.03500160	     -0.11494989	      2.00340578	      0.12682404	      0.00723814	      2.01431721	      0.17901973	     -0.05943708	      2.00039027	      0.33718800	     -0.11082678	      1.95811344	      0.05133606	     -0.10940528	      2.05991205	      0.02225337	     -0.06212970	      2.10039482	      0.34426507	     -0.32328597	      2.12338306	      0.34041812	     -0.23418084	      2.14333897	      0.42379190	     -0.38701608	      2.15298296	      0.48397516	     -0.30577064	      2.16007775	      0.40052092	     -0.29117866	      1.97178295	      0.05975239	     -0.30271509	      2.00137650	      0.04539369	     -0.24626458	      2.12189804	      0.11352748	     -0.28112624	      2.08243992	      0.19037528	     -0.28506330	      2.05999055	      0.34708806	     -0.24476771	      1.97072038	      0.07230780	     -0.23953955	      2.05888743	      0.01163278	     -0.31905000	      2.10172601	      1.01577158	     -0.09851968	      2.10244036	      1.02949397	     -0.18614895	      2.00096761	      1.03130729	     -0.13856717	      2.08267479	      1.02494067	     -0.13430432	      2.18929730	      0.93295723	     -0.15305392	      2.02280800	      0.63603400	     -0.16694400	      2.03224600	      0.64347000	     -0.11058100	      2.02765300	      0.65335500	     -0.22751900	      2.00888900	      0.34242500	     -0.10965600	      2.06811900	      0.34553900	     -0.24463700	      1.96205100	      0.05398200	     -0.10764100	      1.97515700	      0.07623300	     -0.24901500	      2.07409100	      0.71037300	     -0.16554600	      2.07755400	      0.70292100	     -0.07738200	      2.07062800	      0.71782600	     -0.25371100	      1.93802800	      0.72733700	     -0.11733500	      1.93867200	      0.72701600	     -0.20351800	      2.00485900	      0.34287900	     -0.06383500	      2.06111400	      0.34725700	     -0.29209200	      1.99873800	      0.34239700	     -0.15299700	      2.08100600	      0.34417300	     -0.20504000	      1.96021500	      0.05451400	     -0.07419600	      1.95749300	      0.08276100	     -0.27550300	      1.96407700	      0.05582100	     -0.13462600	      1.98168300	      0.07542100	     -0.21495300	      1.99377700	      1.04402400	     -0.13696200	      2.08996400	      0.97439700	     -0.10170400	      2.08607100	      0.98214100	     -0.19316500	      2.07344300	      0.99020000	     -0.13814900	      2.11862300	      0.85682900	     -0.15643300	      2.13283600	      0.42042300	     -0.12339900	      2.10989900	      0.44326300	     -0.35478600	      2.06694900	      0.47874600	     -0.08314400	      2.11070800	      0.49205200	     -0.26848100	      2.04289100	      0.39386000	     -0.08065200	      2.12024300	      0.40798400	     -0.25622000	      2.00312600	      0.12782100	     -0.00935200	      2.09876800	      0.14489400	     -0.25501800	      1.99206400	      0.19586200	     -0.06731400	      2.05826700	      0.21780500	     -0.25551800	      2.05089000	      0.04009600	     -0.10650800	      2.04426000	      0.04206000	     -0.27469800	      0.96589372	    254.08216083	    -14.80576499	      2.00480090	      0.00000000	     -0.10832961	      0.00000000	      0.00000000	      0.00000000	      1.68354016	      0.00000000	     -0.17307574	      0.00000000	      0.47827820	      0.00000000	      0.00000000	      0.00000000	      0.00000000	      2.02280831	      0.63603419	     -0.16694364	      2.03224635	      0.64347005	     -0.11058111	      2.02765346	      0.65335453	     -0.22751923	      2.00888872	      0.34242544	     -0.10965632	      2.06811881	      0.34553921	     -0.24463674	      1.96205115	      0.05398233	     -0.10764107	      1.97515714	      0.07623269	     -0.24901481	      2.07409096	      0.71037316	     -0.16554646	      2.07755375	      0.70292085	     -0.07738179	      2.07062817	      0.71782553	     -0.25371113	      1.93802810	      0.72733730	     -0.11733498	      1.93867230	      0.72701579	     -0.20351839	      2.00485921	      0.34287885	     -0.06383540	      2.06111383	      0.34725729	     -0.29209173	      1.99873781	      0.34239700	     -0.15299669	      2.08100605	      0.34417257	     -0.20503996	      1.96021533	      0.05451412	     -0.07419564	      1.95749307	      0.08276074	     -0.27550286	      1.96407676	      0.05582142	     -0.13462564	      1.98168302	      0.07542057	     -0.21495315	      1.99377716	      1.04402351	     -0.13696207	      2.08996367	      0.97439730	     -0.10170432	      2.08607078	      0.98214126	     -0.19316529	      2.07344294	      0.99020010	     -0.13814868	      2.11862326	      0.85682875	     -0.15643325	      2.13283610	      0.42042282	     -0.12339873	      2.10989857	      0.44326332	     -0.35478607	      2.06694937	      0.47874588	     -0.08314449	      2.11070776	      0.49205187	     -0.26848149	      2.04289055	      0.39385951	     -0.08065184	      2.12024283	      0.40798393	     -0.25621980	      2.00312614	      0.12782109	     -0.00935164	      2.09876823	      0.14489424	     -0.25501776	      1.99206364	      0.19586158	     -0.06731418	      2.05826712	      0.21780506	     -0.25551850	      2.05089021	      0.04009565	     -0.10650775	      2.04426026	      0.04205987	     -0.27469784
      1.44167000	      2.06811101	      0.69262961	     -0.16986508	      5.35902544	      4.87108237	      2.75245094	     -9.89975368	     -5.02586267	     -7.66951016	     -4.46465279	      8.42516299	      3.47014383	      1.70491925	     -5.97781001	    -25.17836789	      4.09332598	    -20.40674360	      0.80411621	     -1.39388531	      0.00000000	      0.00000000	      0.00000000	      0.00000000	      2.18175755	      0.67838332	     -0.11357951	      2.17641399	      0.69251521	     -0.28736629	      2.07760836	      0.69355965	     -0.17032220	      2.05342238	      0.73866418	     -0.14855296	      2.05033189	      0.74478843	     -0.23358059	      2.02752272	      0.63862883	     -0.11467703	      2.02117133	      0.64774130	     -0.22809667	      2.02434702	      0.64318506	     -0.17138685	      2.05624634	      0.32276847	     -0.06592488	      2.06250331	      0.31663635	     -0.15913209	      2.19654235	      0.38622664	     -0.12455524	      2.12776323	      0.45321985	     -0.08793076	      2.10272184	      0.36905144	     -0.08550039	      1.96392482	      0.04350988	     -0.05698991	      1.98131665	      0.03477778	     -0.11492406	      2.00408364	      0.12666349	      0.00712135	      2.01522628	      0.17870769	     -0.05963400	      2.00206902	      0.33686958	     -0.11124570	      1.95836049	      0.05123552	     -0.10939274	      2.06009781	      0.02202842	     -0.06206196	      2.10955759	      0.34521453	     -0.32395008	      2.13180386	      0.34146091	     -0.23465284	      2.15204700	      0.42542375	     -0.38712740	      2.16020428	      0.48554281	     -0.30567184	      2.16823251	      0.40215314	     -0.29119490	      1.99080911	      0.05754084	     -0.30617419	      2.02035271	      0.04389982	     -0.24951989	      2.13871488	      0.11645560	     -0.28282226	      2.09660173	      0.19188363	     -0.28671076	      2.06823842	      0.34746220	     -0.24575424	      1.98870078	      0.06967354	     -0.24294232	      2.07978124	      0.01278983	     -0.32197013	      2.10595825	      1.01530868	     -0.09929017	      2.10656463	      1.02902189	     -0.18692170	      2.00514677	      1.03079864	     -0.13922164	      2.08686149	      1.02446607	     -0.13505353	      2.19349985	      0.93252444	     -0.15391771	      2.02721900	      0.63566500	     -0.16764900	      2.03662200	      0.64304300	     -0.11128700	      2.03214100	      0.65309500	     -0.22821600	      2.01054900	      0.34217400	     -0.10995100	      2.07665100	      0.34573700	     -0.24538600	      1.96228500	      0.05402800	     -0.10774000	      1.99314300	      0.07321800	     -0.25258500	      2.07843000	      0.71008800	     -0.16610800	      2.08180800	      0.70251000	     -0.07795500	      2.07505100	      0.71766600	     -0.25426100	      1.94222800	      0.72684000	     -0.11801900	      1.94297600	      0.72654900	     -0.20415600	      2.00652500	      0.34272600	     -0.06413100	      2.07007200	      0.34743800	     -0.29290200	      2.00033300	      0.34233900	     -0.15315700	      2.08763100	      0.34467900	     -0.20534900	      1.96034200	      0.05461000	     -0.07430100	      1.97569300	      0.07927100	     -0.27932700	      1.96418800	      0.05580200	     -0.13470900	      1.99903200	      0.07242600	     -0.21844100	      1.99827600	      1.04377800	     -0.13751200	      2.09415900	      0.97405200	     -0.10257800	      2.09022100	      0.98165800	     -0.19405800	      2.07760400	      0.98984100	     -0.13898500	      2.12244700	      0.85631400	     -0.15713900	      2.13531500	      0.41910600	     -0.12381500	      2.11805800	      0.44423300	     -0.35466200	      2.07007100	      0.47807100	     -0.08352500	      2.11693800	      0.49292700	     -0.26821600	      2.04511400	      0.39336400	     -0.08092100	      2.12710500	      0.40886300	     -0.25581900	      2.00340100	      0.12775000	     -0.00939900	      2.11436800	      0.14644500	     -0.25622400	      1.99288800	      0.19574300	     -0.06743100	      2.07125100	      0.21789900	     -0.25691300	      2.05097700	      0.03998000	     -0.10640300	      2.06399000	      0.04164400	     -0.27733200	      1.46638995	    253.42471460	    -15.24546076	      2.00835242	      0.00000000	     -0.10785091	      0.00000000	      0.00000000	      0.00000000	      1.68400134	      0.00000000	     -0.17279163	      0.00000000	      0.46544482	      0.00000000	      0.00000000	      0.00000000	      0.00000000	      2.02721930	      0.63566464	     -0.16764925	      2.03662205	      0.64304304	     -0.11128749	      2.03214073	      0.65309489	     -0.22821566	      2.01054931	      0.34217414	     -0.10995091	      2.07665133	      0.34573677	     -0.24538586	      1.96228456	      0.05402778	     -0.10773997	      1.99314308	      0.07321763	     -0.25258547	      2.07842970	      0.71008766	     -0.16610822	      2.08180809	      0.70250952	     -0.07795529	      2.07505131	      0.71766585	     -0.25426114	      1.94222796	      0.72683990	     -0.11801932	      1.94297612	      0.72654921	     -0.20415615	      2.00652504	      0.34272641	     -0.06413059	      2.07007194	      0.34743842	     -0.29290235	      2.00033307	      0.34233931	     -0.15315700	      2.08763146	      0.34467900	     -0.20534916	      1.96034229	      0.05460969	     -0.07430138	      1.97569299	      0.07927133	     -0.27932686	      1.96418798	      0.05580190	     -0.13470924	      1.99903202	      0.07242584	     -0.21844095	      1.99827552	      1.04377794	     -0.13751210	      2.09415936	      0.97405201	     -0.10257836	      2.09022069	      0.98165751	     -0.19405773	      2.07760358	      0.98984104	     -0.13898456	      2.12244749	      0.85631388	     -0.15713936	      2.13531494	      0.41910639	     -0.12381511	      2.11805820	      0.44423294	     -0.35466239	      2.07007074	      0.47807097	     -0.08352503	      2.11693764	      0.49292737	     -0.26821649	      2.04511380	      0.39336389	     -0.08092099	      2.12710476	      0.40886289	     -0.25581929	      2.00340128	      0.12775047	     -0.00939867	      2.11436820	      0.14644462	     -0.25622407	      1.99288774	      0.19574295	     -0.06743080	      2.07125068	      0.21789877	     -0.25691268	      2.05097675	      0.03997968	     -0.10640322	      2.06398964	      0.04164352	     -0.27733198
      1.45000000	      2.07243778	      0.69221368	     -0.17056032	      5.43363693	      4.97136759	      2.68606470	    -10.47422439	     -5.16652297	     -7.68240034	     -4.26279638	      8.59889798	      4.14156557	      1.76723417	     -5.65921201	    -23.84260086	      3.94434874	    -20.46342470	      0.64631809	     -1.42549336	      0.00000000	      0.00000000	      0.00000000	      0.00000000	      2.18604597	      0.67799979	     -0.11418921	      2.18085634	      0.69244703	     -0.28795472	      2.08193445	      0.69315598	     -0.17100635	      2.05767279	      0.73819103	     -0.14917754	      2.05465857	      0.74446899	     -0.23419669	      2.03186027	      0.63806206	     -0.11551233	      2.02560946	      0.64737689	     -0.22892112	      2.02873486	      0.64271948	     -0.17221673	      2.05785003	      0.32202279	     -0.06638697	      2.06407249	      0.31572843	     -0.15958568	      2.19869960	      0.38420083	     -0.12506169	      2.13049328	      0.45182708	     -0.08852952	      2.10472672	      0.36788056	     -0.08600654	      1.96413643	      0.04346709	     -0.05707233	      1.98149135	      0.03456437	     -0.11499159	      2.00471067	      0.12650507	      0.00692713	      2.01612811	      0.17839724	     -0.05990010	      2.00378589	      0.33655114	     -0.11173714	      1.95861879	      0.05114695	     -0.10948683	      2.06026623	      0.02181527	     -0.06204011	      2.11852181	      0.34621358	     -0.32478774	      2.14013665	      0.34252835	     -0.23533272	      2.16047504	      0.42710030	     -0.38745758	      2.16725747	      0.48712394	     -0.30580579	      2.17622530	      0.40380773	     -0.29145798	      2.00984105	      0.05573576	     -0.30958814	      2.03938194	      0.04281680	     -0.25276343	      2.15535495	      0.11973637	     -0.28464809	      2.11061420	      0.19363978	     -0.28846600	      2.07638651	      0.34786314	     -0.24687001	      2.00677826	      0.06740804	     -0.24630864	      2.10036980	      0.01398431	     -0.32481551	      2.11006859	      1.01489445	     -0.10016134	      2.11073417	      1.02852004	     -0.18780610	      2.00928061	      1.03030596	     -0.14018237	      2.09099464	      1.02400871	     -0.13594788	      2.19768179	      0.93208885	     -0.15464153	      2.03161100	      0.63529000	     -0.16840700	      2.04092600	      0.64260400	     -0.11201000	      2.03660200	      0.65281800	     -0.22893000	      2.01224300	      0.34193200	     -0.11026900	      2.08509800	      0.34599600	     -0.24616500	      1.96252300	      0.05408300	     -0.10783600	      2.01121400	      0.07056100	     -0.25627700	      2.08273500	      0.70977600	     -0.16667400	      2.08599400	      0.70207500	     -0.07852600	      2.07947500	      0.71747600	     -0.25482200	      1.94642900	      0.72635400	     -0.11878600	      1.94731000	      0.72608400	     -0.20487600	      2.00819700	      0.34258400	     -0.06445100	      2.07888500	      0.34768600	     -0.29373100	      2.00212800	      0.34195700	     -0.15321600	      2.09476800	      0.34484800	     -0.20573000	      1.96047100	      0.05472000	     -0.07440500	      1.99397900	      0.07617400	     -0.28325300	      1.96428100	      0.05578400	     -0.13477200	      2.01647900	      0.06966900	     -0.22209200	      2.00246000	      1.04349800	     -0.13846800	      2.09834900	      0.97371000	     -0.10345200	      2.09443000	      0.98117600	     -0.19494200	      2.08181200	      0.98946600	     -0.13987900	      2.12655500	      0.85586500	     -0.15782500	      2.13779400	      0.41780100	     -0.12417900	      2.12597000	      0.44516000	     -0.35458100	      2.07285700	      0.47725900	     -0.08391000	      2.12289700	      0.49360500	     -0.26779400	      2.04734200	      0.39288300	     -0.08111800	      2.13406100	      0.40977100	     -0.25546200	      2.00367600	      0.12769800	     -0.00945500	      2.12982200	      0.14828700	     -0.25756700	      1.99358100	      0.19566400	     -0.06749300	      2.08410900	      0.21811000	     -0.25833400	      2.05105600	      0.03987700	     -0.10629200	      2.08360000	      0.04136900	     -0.28005800	      1.93447868	    252.61142890	    -15.63757424	      2.01181763	      0.00000000	     -0.10734625	      0.00000000	      0.00000000	      0.00000000	      1.68438477	      0.00000000	     -0.17259744	      0.00000000	      0.45276880	      0.00000000	      0.00000000	      0.00000000	      0.00000000	      2.03161073	      0.63528985	     -0.16840743	      2.04092574	      0.64260405	     -0.11200979	      2.03660178	      0.65281814	     -0.22892985	      2.01224279	      0.34193239	     -0.11026854	      2.08509803	      0.34599581	     -0.24616490	      1.96252298	      0.05408260	     -0.10783576	      2.01121354	      0.07056089	     -0.25627697	      2.08273458	      0.70977569	     -0.16667402	      2.08599448	      0.70207518	     -0.07852631	      2.07947469	      0.71747625	     -0.25482172	      1.94642878	      0.72635376	     -0.11878562	      1.94731009	      0.72608429	     -0.20487589	      2.00819683	      0.34258369	     -0.06445144	      2.07888532	      0.34768569	     -0.29373109	      2.00212789	      0.34195694	     -0.15321590	      2.09476757	      0.34484804	     -0.20573001	      1.96047127	      0.05471952	     -0.07440471	      1.99397945	      0.07617431	     -0.28325328	      1.96428120	      0.05578430	     -0.13477212	      2.01647878	      0.06966893	     -0.22209185	      2.00246024	      1.04349804	     -0.13846815	      2.09834886	      0.97371000	     -0.10345228	      2.09443021	      0.98117614	     -0.19494185	      2.08181167	      0.98946553	     -0.13987941	      2.12655497	      0.85586548	     -0.15782471	      2.13779378	      0.41780078	     -0.12417897	      2.12597013	      0.44516021	     -0.35458148	      2.07285666	      0.47725943	     -0.08390980	      2.12289715	      0.49360546	     -0.26779434	      2.04734159	      0.39288294	     -0.08111802	      2.13406110	      0.40977061	     -0.25546226	      2.00367594	      0.12769793	     -0.00945464	      2.12982225	      0.14828679	     -0.25756687	      1.99358141	      0.19566393	     -0.06749333	      2.08410859	      0.21811013	     -0.25833416	      2.05105591	      0.03987668	     -0.10629247	      2.08359981	      0.04136882	     -0.28005767
